<?xml version="1.0" encoding="utf-8"?>
<!-- Generator: Adobe Illustrator 28.0.0, SVG Export Plug-In . SVG Version: 6.00 Build 0)  -->
<svg version="1.1" id="Layer_1" xmlns="http://www.w3.org/2000/svg" xmlns:xlink="http://www.w3.org/1999/xlink" x="0px" y="0px"
	 viewBox="0 0 1648 2026" style="enable-background:new 0 0 1648 2026;" xml:space="preserve">
<style type="text/css">
	.st0{fill:#B9A46A;}
	.st1{fill:#1E8451;}
</style>
<path class="st0" d="M821.7,1305.5l-512.5-295.9V417.9L821.7,122l512.5,295.9v591.8L821.7,1305.5z M338.8,992.5l482.9,278.8
	l482.9-278.8V435L821.7,156.2L338.8,435V992.5z"/>
<polygon class="st1" points="821.7,203.7 379.9,458.7 379.9,968.8 482.8,1028.2 482.8,518.1 821.7,322.5 1160.5,518.1 
	1160.5,1028.2 1263.4,968.8 1263.4,458.7 "/>
<polygon class="st1" points="1016.5,482.5 821.7,595 626.8,482.5 523.9,541.9 770.2,684.1 770.2,1075.4 770.2,1194.2 821.7,1223.8 
	873.1,1194.2 873.1,1075.4 873.1,684.1 1119.4,541.9 "/>
</svg>
